<svg width="942" height="571" xmlns="http://www.w3.org/2000/svg" xml:space="preserve" enable-background="new 0 0 1200 1200" version="1.1">

 <g>
  <title>Layer 1</title>
  <g id="svg_1">
   <path id="svg_2" d="m614.323,30l-585.414,0c-15.9,0 -28.909,14.926 -28.909,33.169l0,392.494c0,18.243 13.009,33.169 28.909,33.169l585.414,0c15.9,0 28.909,-14.926 28.909,-33.169l0,-392.494c0,-18.243 -13.009,-33.169 -28.909,-33.169zm-303.548,442.247c-10.644,0 -19.273,-8.044 -19.273,-17.966c0,-9.922 8.629,-17.966 19.273,-17.966c10.644,0 19.273,8.044 19.273,17.966c0,9.922 -8.629,17.966 -19.273,17.966zm303.548,-77.393c0,18.243 -13.009,33.169 -28.909,33.169l-532.414,0c-15.9,0 -28.909,-14.926 -28.909,-33.169l0,-301.281c0,-18.243 13.009,-33.169 28.909,-33.169l532.413,0c15.9,0 28.909,14.926 28.909,33.169l0,301.281l0.001,0z" fill="#28A5F1"/>
   <path id="svg_3" d="m496.565,546.407l-77.242,0l-29.893,-47.896l-162.908,0l-25.294,47.896l-75.425,0c-21.991,0 -39.984,9.369 -39.984,20.821c0,1.327 0.266,2.622 0.727,3.881l449.276,0c0.462,-1.26 0.727,-2.555 0.727,-3.881c0,-11.451 -17.993,-20.821 -39.984,-20.821z" fill="#28A5F1"/>
   <path id="svg_4" d="m913.053,0l-207.184,0c-15.9,0 -28.909,13.068 -28.909,29.04l0,508.19c0,15.972 13.009,29.039 28.909,29.039l207.184,0c15.9,0 28.909,-13.068 28.909,-29.039l0,-508.19c0,-15.972 -13.009,-29.04 -28.909,-29.04zm-72.274,442.852c0,15.972 -13.009,29.039 -28.909,29.039l-2.409,0c-15.9,0 -28.909,-13.068 -28.909,-29.039l0,-2.42c0,-15.972 13.009,-29.039 28.909,-29.039l2.409,0c15.9,0 28.909,13.068 28.909,29.039l0,2.42zm28.91,-145.197l-115.638,0l0,-19.36l115.637,0l0,19.36l0.001,0zm26.196,-48.399l-175.257,0c-8.117,0 -14.758,-8.712 -14.758,-19.36c0,-10.648 6.641,-19.36 14.758,-19.36l175.258,0c8.117,0 14.759,8.712 14.759,19.36c-0.001,10.648 -6.643,19.36 -14.76,19.36zm0,-58.079l-175.257,0c-8.117,0 -14.758,-8.712 -14.758,-19.36c0,-10.648 6.641,-19.36 14.758,-19.36l175.258,0c8.117,0 14.759,8.712 14.759,19.36c-0.001,10.648 -6.643,19.36 -14.76,19.36zm0,-60.499l-175.257,0c-8.117,0 -14.758,-8.712 -14.758,-19.36c0,-10.648 6.641,-19.36 14.758,-19.36l175.258,0c8.117,0 14.759,8.712 14.759,19.36c-0.001,10.648 -6.643,19.36 -14.76,19.36zm0,-58.079l-175.257,0c-8.117,0 -14.758,-8.712 -14.758,-19.36c0,-10.648 6.641,-19.36 14.758,-19.36l175.258,0c8.117,0 14.759,8.712 14.759,19.36c-0.001,10.648 -6.643,19.36 -14.76,19.36z" fill="#28A5F1"/>
  </g>
 </g>
</svg>